<svg width="14" height="14" viewBox="0 0 14 14" fill="none" xmlns="http://www.w3.org/2000/svg">
<path d="M6.235 11.6832H4.80466C3.54917 11.6832 2.53149 10.6656 2.53149 9.4101V4.02317C2.53149 2.76768 3.54917 1.75 4.80466 1.75H8.72099C9.9765 1.75 10.9941 2.76768 10.9941 4.02317V5.88029" stroke="#7C5CDB" stroke-width="0.875" stroke-linecap="round" stroke-linejoin="round"/>
<path d="M8.77228 9.75487L9.30894 10.2926L10.4152 9.18583M7.68284 8.41548C7.68284 8.08583 7.94989 7.81826 8.28 7.81779H8.55178C8.70928 7.81779 8.86054 7.75573 8.97265 7.6446L9.16253 7.45426C9.39464 7.22005 9.77328 7.21953 10.007 7.45163L10.0075 7.45216L10.0095 7.45426L10.1999 7.64408C10.3115 7.7552 10.4628 7.81779 10.6208 7.81779H10.8931C11.2227 7.81779 11.4903 8.08531 11.4903 8.41548V8.68673C11.4903 8.84423 11.5529 8.99601 11.664 9.1076L11.8538 9.298C12.088 9.53058 12.0896 9.90875 11.8569 10.1429L11.8543 10.145L11.664 10.3354C11.5529 10.4475 11.4908 10.5983 11.4908 10.7558V11.0285C11.4903 11.3582 11.2227 11.6252 10.8931 11.6247H10.6203C10.4623 11.6247 10.311 11.6873 10.1994 11.7984L10.009 11.9887C9.77695 12.223 9.3993 12.2245 9.16463 11.9924L9.1641 11.9914L9.162 11.9893L8.9716 11.7994C8.86001 11.6883 8.70875 11.6257 8.55125 11.6257H8.28C7.95042 11.6257 7.68284 11.3582 7.68284 11.0285V10.7552C7.68284 10.5977 7.62025 10.447 7.50913 10.3349L7.31931 10.1445C7.0851 9.91289 7.083 9.53478 7.31511 9.30057L7.31616 9.29952L7.31879 9.29748L7.5086 9.10708C7.61973 8.99548 7.68232 8.84423 7.68232 8.6862L7.68284 8.41548Z" stroke="#7C5CDB" stroke-width="0.875" stroke-linecap="round" stroke-linejoin="round"/>
<path d="M7.14254 5.04956H4.87677M5.80138 7.49784H4.87622" stroke="#7C5CDB" stroke-width="0.875" stroke-linecap="round" stroke-linejoin="round"/>
</svg>

